<?xml version="1.0" standalone="no"?>
<!DOCTYPE svg PUBLIC "-//W3C//DTD SVG 20010904//EN"
 "http://www.w3.org/TR/2001/REC-SVG-20010904/DTD/svg10.dtd">
<svg version="1.0" xmlns="http://www.w3.org/2000/svg"
 width="500.000000pt" height="500.000000pt" viewBox="0 0 500.000000 500.000000"
 preserveAspectRatio="xMidYMid meet">

<g transform="translate(0.000000,500.000000) scale(0.100000,-0.100000)"
fill="#000000" stroke="none">
<path d="M2286 4429 c-179 -15 -347 -54 -528 -120 -250 -91 -449 -212 -655
-398 l-72 -65 57 -23 c60 -24 92 -29 92 -14 0 13 217 184 287 227 116 70 320
163 434 198 185 56 378 80 594 73 307 -9 482 -51 745 -179 159 -77 312 -176
405 -262 33 -31 63 -56 67 -56 4 0 17 15 29 33 13 17 29 36 36 40 7 4 13 11
13 16 0 12 -176 152 -275 218 -262 175 -591 285 -939 313 -141 11 -159 11
-290 -1z"/>
<path d="M2317 4009 c-175 -14 -359 -65 -539 -148 -63 -29 -89 -36 -97 -28 -8
8 -14 8 -23 -1 -7 -7 -17 -12 -22 -12 -6 0 -4 5 4 11 11 8 8 9 -15 5 -16 -3
-45 -7 -62 -8 -18 -1 -35 -9 -38 -16 -4 -12 -8 -12 -20 -2 -13 10 -19 9 -34
-8 -10 -12 -21 -19 -25 -15 -6 6 -10 -12 -7 -30 1 -5 -3 -6 -8 -2 -6 3 -7 13
-4 23 6 15 5 15 -10 3 -15 -12 -13 -16 21 -40 70 -52 71 -51 -18 -125 -46 -39
-80 -61 -80 -52 0 33 -51 76 -117 96 -36 11 -68 19 -70 16 -2 -2 14 -18 37
-36 46 -37 54 -74 18 -86 -13 -5 -27 -7 -31 -6 -5 2 0 -9 11 -23 12 -15 26
-42 32 -61 11 -33 13 -34 50 -28 35 6 42 3 80 -34 25 -24 55 -42 75 -45 40 -7
116 3 110 13 -3 5 4 6 15 3 11 -3 27 0 35 7 12 10 16 9 21 -4 10 -25 -14 -45
-75 -63 -48 -13 -95 -15 -323 -11 l-267 5 55 -102 55 -103 -42 -125 c-41 -121
-43 -125 -63 -112 -12 7 -57 23 -101 34 -44 12 -92 31 -107 42 -32 23 -34 19
-13 -22 9 -17 45 -49 83 -73 80 -51 96 -68 90 -99 -4 -21 -1 -23 25 -19 25 4
29 2 24 -12 -4 -10 -7 -36 -7 -58 0 -37 -2 -40 -23 -34 -57 14 -87 -57 -52
-125 9 -16 13 -35 9 -41 -4 -7 -3 -8 4 -4 7 4 12 2 12 -3 0 -6 -8 -11 -17 -11
-10 0 10 -13 44 -29 111 -49 197 -127 216 -196 3 -11 8 -31 12 -43 7 -22 5
-24 -29 -19 -20 3 -34 1 -31 -3 3 -5 0 -12 -7 -16 -7 -4 -10 -4 -6 1 11 11
-11 35 -31 35 -9 0 -32 17 -52 38 -32 33 -69 56 -55 34 2 -4 -4 -13 -14 -20
-17 -10 -18 -9 -13 5 6 15 5 16 -9 3 -9 -8 -15 -17 -13 -20 2 -3 -11 -6 -28
-8 -18 -1 -41 -3 -51 -5 -13 -1 -22 6 -27 23 -4 14 -8 18 -8 10 -1 -8 -8 2
-15 23 -24 67 -62 113 -120 146 l-56 31 0 88 c0 95 14 244 29 307 5 22 17 71
26 110 22 95 99 300 134 357 l29 46 -29 13 c-53 21 -76 100 -43 147 30 44 66
20 94 -62 10 -26 12 -27 28 -14 9 9 32 18 49 21 27 5 33 3 33 -12 0 -27 9 -30
42 -14 19 10 46 14 74 10 47 -5 51 0 38 51 -4 15 -13 22 -24 20 -12 -2 -31 14
-54 44 -20 26 -36 50 -36 53 0 4 28 36 62 71 34 35 59 65 57 67 -70 51 -89 71
-89 93 0 21 -4 24 -39 24 -40 0 -91 -30 -91 -54 0 -7 14 -25 30 -40 l31 -27
-31 -39 c-21 -26 -40 -40 -55 -40 -25 0 -41 -15 -47 -45 -2 -14 -14 -21 -38
-25 -83 -14 -105 -46 -96 -135 6 -58 4 -67 -40 -160 -108 -232 -157 -426 -179
-707 -7 -88 -7 -88 -35 -88 -43 0 -53 -21 -45 -87 6 -47 9 -55 18 -42 17 23
52 39 84 39 73 -1 179 -82 225 -172 46 -89 100 -219 94 -225 -3 -3 -45 31 -93
77 -75 70 -177 140 -157 108 4 -6 1 -8 -7 -6 -8 3 -13 13 -13 22 2 13 -1 14
-12 5 -8 -6 -11 -16 -7 -23 3 -6 -7 0 -23 14 -17 15 -23 18 -14 6 14 -18 14
-19 -8 -7 -12 7 -20 16 -17 20 2 5 -3 8 -13 7 -9 0 -16 5 -14 12 1 6 -2 12 -8
12 -6 0 -10 -28 -10 -65 0 -60 2 -67 34 -99 21 -21 39 -51 45 -78 6 -23 18
-63 27 -88 8 -25 18 -55 21 -67 8 -33 36 -30 150 16 145 58 198 71 303 78 155
9 287 -21 467 -106 126 -61 222 -122 293 -189 l55 -51 -106 -1 c-130 0 -186
15 -276 76 -93 62 -132 82 -246 121 -171 58 -291 65 -468 28 -39 -8 -86 -15
-105 -15 -38 0 -39 -2 -22 -30 16 -25 9 -31 -48 -41 -104 -20 -118 -75 -54
-208 22 -45 40 -92 40 -103 0 -11 -16 -46 -35 -77 -89 -148 -106 -225 -60
-279 28 -33 90 -52 169 -52 24 0 64 -3 90 -6 44 -6 46 -9 57 -48 6 -22 23 -66
39 -97 15 -30 35 -78 44 -106 18 -55 45 -86 91 -103 20 -8 212 -13 605 -17
l575 -5 43 -25 c65 -37 95 -44 225 -52 201 -13 331 9 376 63 12 14 75 16 555
17 297 0 592 4 654 8 101 6 115 10 136 32 24 25 56 97 56 125 0 9 16 48 35 87
19 39 35 81 35 93 0 20 6 23 68 28 141 12 194 24 219 48 51 51 39 120 -49 284
-21 39 -38 79 -38 89 0 9 14 49 31 88 37 83 46 135 29 166 -15 29 -68 51 -120
51 -44 0 -50 11 -25 47 14 20 13 21 -43 26 -31 2 -100 12 -152 22 -151 27
-218 18 -428 -59 -58 -22 -135 -61 -199 -102 -90 -57 -120 -66 -238 -71 -164
-8 -163 -9 -66 74 133 116 415 247 556 260 28 2 64 6 80 7 17 2 33 -2 37 -7 4
-7 12 -6 22 2 31 26 175 -6 343 -75 45 -19 90 -34 100 -34 15 0 26 32 66 198
51 214 62 277 72 424 5 77 11 100 26 114 13 12 19 30 18 58 -1 55 -13 94 -23
78 -4 -6 -25 -12 -47 -12 -55 0 -112 -55 -78 -75 6 -4 16 1 24 11 13 18 14 18
20 -7 9 -37 -10 -101 -40 -129 -28 -26 -48 -80 -47 -124 0 -20 -2 -26 -8 -17
-12 20 -39 -7 -32 -32 5 -18 4 -18 -29 -2 l-34 18 18 -21 c19 -20 18 -21 -5
-15 -18 4 -20 3 -8 -6 12 -8 9 -10 -15 -8 -20 1 -29 -2 -27 -10 3 -16 -10 -17
-26 -1 -9 9 -15 9 -24 -1 -11 -10 -10 -11 3 -6 10 4 16 0 16 -9 0 -8 -4 -13
-8 -10 -5 3 -20 -3 -34 -12 -14 -9 -25 -12 -25 -6 0 6 6 13 13 15 6 3 -3 6
-20 6 -18 1 -33 -3 -33 -9 0 -14 -59 -7 -65 9 -4 11 -8 11 -20 1 -8 -7 -15 -9
-15 -5 0 5 -14 -11 -31 -34 -20 -28 -35 -41 -45 -37 -8 3 -13 2 -10 -3 3 -5
-13 -9 -35 -9 -22 -1 -47 -6 -55 -13 -25 -20 -28 -1 -10 56 27 87 95 154 206
203 68 29 86 41 71 45 -13 3 -19 1 -14 -5 4 -7 1 -8 -6 -4 -9 6 -8 13 5 27 10
11 19 41 22 72 5 62 -10 82 -58 75 -25 -4 -30 -1 -30 16 0 12 -3 39 -7 60 -6
38 -5 39 20 34 25 -5 27 -2 27 27 0 35 12 49 81 88 44 25 109 88 109 106 0 5
-24 -4 -52 -19 -29 -15 -78 -33 -108 -39 -30 -7 -65 -19 -78 -27 -25 -16 -23
-18 -41 51 -14 53 -14 60 4 45 9 -7 17 -11 18 -9 2 2 11 16 20 31 19 31 74 52
124 46 l36 -4 -23 18 c-34 28 -94 23 -154 -12 l-52 -29 -17 50 c-15 48 -15 53
4 96 10 24 34 70 52 101 l33 57 -290 0 c-271 0 -294 1 -331 20 -26 13 -41 29
-46 47 -7 26 -6 27 14 13 30 -19 134 -34 170 -24 15 4 47 24 69 44 32 30 46
36 75 33 32 -3 36 0 48 35 7 21 21 47 30 57 16 18 16 19 -9 26 -14 3 -26 9
-26 13 0 12 49 75 65 84 9 4 13 12 10 17 -6 10 -110 -23 -133 -42 -8 -7 -22
-29 -31 -50 l-16 -36 -74 70 c-84 78 -84 81 -13 133 40 30 55 49 29 39 -8 -3
-20 2 -27 11 -14 17 -30 20 -30 4 0 -5 4 -8 9 -4 5 3 12 2 15 -3 3 -5 -2 -9
-11 -9 -9 0 -18 8 -20 18 -5 19 -43 29 -114 29 -32 0 -49 -4 -49 -12 0 -7 -5
-5 -11 5 -5 9 -18 17 -27 16 -10 0 -12 -3 -4 -6 6 -2 12 -8 12 -13 0 -13 -18
-7 -115 39 -250 119 -527 171 -788 150z m375 -149 c136 -24 227 -54 349 -116
159 -82 363 -233 353 -262 -2 -7 1 -10 6 -7 15 9 12 -4 -4 -20 -7 -8 -16 -12
-19 -9 -3 3 -23 -2 -44 -11 -21 -9 -53 -23 -70 -31 -18 -7 -39 -11 -48 -8 -10
4 -15 0 -15 -11 0 -9 5 -13 10 -10 6 3 10 1 10 -5 0 -7 -8 -9 -19 -5 -11 3
-25 -1 -34 -10 -9 -8 -20 -15 -26 -15 -6 0 -11 -4 -11 -8 0 -4 -10 -8 -22 -9
-11 -1 -24 -7 -28 -12 -3 -6 -24 -13 -45 -16 -22 -4 -59 -15 -83 -26 -23 -10
-57 -21 -75 -24 -86 -12 -230 -23 -261 -19 -19 2 -38 0 -41 -6 -4 -6 -58 -10
-135 -9 -71 1 -134 -2 -141 -7 -7 -4 -10 -3 -6 3 9 14 -43 27 -56 14 -11 -11
-95 -4 -113 10 -6 5 -19 10 -30 12 -10 1 -24 6 -31 10 -6 4 -14 1 -16 -5 -4
-10 -8 -9 -17 2 -9 11 -13 12 -17 3 -7 -20 -30 -15 -36 7 -4 15 -14 20 -41 20
-20 0 -36 4 -36 9 0 5 -9 7 -20 4 -10 -3 -26 2 -35 11 -9 9 -25 16 -34 16 -10
0 -24 7 -31 15 -7 8 -16 12 -22 9 -5 -3 -26 7 -46 23 -20 15 -48 29 -62 30
-14 1 -26 6 -28 11 -1 5 -14 7 -29 4 -19 -4 -24 -2 -18 8 5 8 4 11 -3 7 -15
-10 -43 3 -35 16 4 6 -3 8 -19 4 -17 -5 -30 -2 -38 8 -7 8 -17 12 -24 8 -6 -3
-8 -3 -4 1 3 4 8 7 10 7 2 -1 37 32 79 72 175 167 462 299 719 330 106 12 319
6 432 -13z m1081 -600 c-5 -19 -23 -29 -23 -12 0 7 20 32 26 32 1 0 0 -9 -3
-20z m-2638 -9 c-3 -6 -11 -8 -17 -5 -6 4 -5 9 3 15 16 10 23 4 14 -10z m991
-360 c81 -37 129 -140 105 -222 -7 -24 -24 -58 -38 -75 -31 -42 -115 -84 -165
-84 -105 0 -218 98 -218 189 0 39 32 111 61 138 78 71 173 91 255 54z m811 -3
c57 -29 90 -68 106 -125 10 -41 13 -43 19 -22 5 14 6 2 3 -30 -9 -106 -89
-189 -194 -199 -63 -6 -141 28 -186 80 -38 45 -62 125 -47 154 6 11 16 34 23
52 21 58 110 111 188 112 26 0 62 -9 88 -22z m-237 -627 c41 -5 84 -11 95 -14
11 -3 31 -6 45 -7 23 -1 24 -1 6 -12 -14 -7 -29 -8 -54 0 -47 15 -54 7 -8 -8
20 -6 34 -16 30 -21 -3 -5 -10 -6 -16 -3 -7 4 -8 2 -4 -4 4 -7 18 -9 33 -6 17
5 24 3 20 -4 -8 -12 48 -33 68 -26 8 4 15 2 15 -4 0 -5 7 -13 16 -16 8 -3 13
-2 10 2 -3 5 1 9 9 9 8 0 14 -3 13 -6 -2 -21 4 -22 18 -5 8 10 12 12 8 4 -4
-8 6 -3 23 13 21 19 40 27 66 27 32 0 83 -16 97 -30 3 -3 40 -23 83 -44 42
-22 77 -43 77 -48 0 -19 -47 -5 -121 35 l-78 42 -55 -30 c-52 -27 -54 -30 -39
-47 8 -10 19 -15 24 -13 4 3 10 1 14 -5 3 -5 -5 -14 -19 -20 -14 -5 -26 -15
-26 -21 0 -8 -4 -8 -15 1 -13 11 -14 10 -9 -4 8 -21 -17 -21 -57 0 -33 17 -33
16 -154 -61 -180 -116 -369 -199 -520 -227 -51 -9 -68 -9 -78 1 -16 16 3 27
71 41 28 6 52 14 52 18 0 4 -35 29 -77 55 -43 27 -112 70 -153 96 -95 60 -190
112 -190 104 0 -3 -9 2 -19 11 -18 16 -19 16 -17 0 0 -9 -4 -19 -10 -21 -7 -2
-11 6 -10 19 3 35 -4 41 -27 21 -12 -10 -17 -12 -12 -4 6 11 4 13 -9 8 -11 -4
-15 -3 -11 4 4 6 13 8 21 5 8 -3 14 -1 14 3 0 5 -19 18 -42 30 -64 30 -98 41
-98 32 0 -10 -110 -65 -130 -65 -8 0 -18 -4 -21 -9 -4 -5 -9 -5 -13 1 -3 6 4
14 16 17 13 4 37 18 54 31 17 13 34 20 38 17 3 -4 15 3 26 14 23 25 67 40 136
46 38 3 51 1 51 -9 0 -11 -4 -11 -16 -2 -9 7 -4 -1 11 -16 23 -25 31 -28 62
-22 20 4 34 11 31 17 -4 5 7 12 24 15 17 4 28 10 26 14 -3 5 3 6 13 3 10 -2
24 2 30 10 10 11 7 13 -18 12 -16 -1 -27 2 -24 7 3 4 -1 8 -8 9 -25 2 47 21
75 20 15 -1 27 3 27 9 0 6 12 10 28 10 15 -1 61 3 102 9 82 10 360 6 480 -8z
m1625 9 c13 -22 -18 -47 -93 -75 -44 -16 -78 -34 -75 -39 4 -5 2 -7 -3 -3 -13
7 -74 -20 -74 -33 0 -6 -5 -8 -10 -5 -6 3 -13 -1 -16 -9 -3 -9 -10 -13 -15
-10 -5 3 -9 1 -9 -4 0 -5 -8 -12 -17 -15 -10 -2 -26 -8 -35 -12 -31 -13 -21
32 17 73 19 22 31 43 27 47 -4 5 -1 4 7 0 11 -6 13 -4 7 11 -6 15 -5 16 5 7 9
-9 23 -6 63 14 96 49 207 76 221 53z m-2952 -101 c5 -9 7 -28 3 -44 -7 -26 -8
-27 -22 -9 -9 11 -12 12 -8 4 6 -12 4 -13 -7 -2 -7 6 -26 12 -41 12 -35 0 -36
13 -1 40 30 23 61 23 76 -1z m2213 -2 c34 -30 26 -45 -23 -42 -21 2 -44 -2
-50 -7 -20 -16 -17 37 3 56 21 22 38 20 70 -7z m620 -32 c-1 -8 -5 -17 -8 -21
-5 -4 -4 16 1 34 3 9 9 -1 7 -13z m-3301 -15 c18 -19 18 -22 2 -38 -19 -18
-41 -11 -61 21 -8 13 -7 20 4 27 22 14 35 12 55 -10z m55 -505 c0 -13 -28 -15
-190 -15 -104 0 -190 -4 -190 -8 0 -5 14 -37 31 -72 17 -36 26 -67 21 -72 -5
-5 -26 29 -50 82 -23 49 -42 92 -42 95 0 3 95 5 210 5 180 0 210 -2 210 -15z
m3380 6 c0 -5 -18 -47 -41 -93 -27 -56 -39 -92 -36 -112 4 -27 3 -27 -10 -11
-17 24 -17 29 7 74 11 22 26 58 34 80 l14 41 -194 0 c-166 0 -194 2 -194 15 0
13 30 15 210 15 122 0 210 -4 210 -9z m-2680 -140 c-14 -3 22 -8 80 -11 58 -3
-129 -6 -415 -6 -286 0 -503 1 -482 3 20 2 37 8 37 14 0 5 157 8 403 8 221 -1
391 -4 377 -8z m257 3 c-7 -7 -188 -6 -195 1 -3 3 41 5 98 5 57 0 101 -3 97
-6z m293 -3 c-22 -4 8 -8 80 -11 l115 -6 -138 -2 c-85 -1 -136 2 -132 7 3 6
-17 12 -47 14 -29 2 -6 3 52 4 58 0 89 -3 70 -6z m77 3 c-3 -3 -12 -4 -19 -1
-8 3 -5 6 6 6 11 1 17 -2 13 -5z m508 -4 c4 -6 70 -10 165 -10 95 0 161 4 165
10 4 6 175 10 481 10 l474 0 -1 -37 c0 -21 -5 -47 -10 -58 l-9 -20 1 20 c3 57
-1 65 -28 65 -22 0 -25 2 -13 10 9 6 10 10 3 10 -6 0 -15 -4 -18 -10 -4 -6
-245 -9 -668 -9 -382 1 -651 5 -637 10 17 5 5 7 -35 3 -137 -11 -219 -13 -200
-5 19 8 18 9 -5 13 -14 3 55 6 152 7 109 0 179 -3 183 -9z m288 3 c-7 -2 -21
-2 -30 0 -10 3 -4 5 12 5 17 0 24 -2 18 -5z m-1055 -20 c-21 -2 -55 -2 -75 0
-21 2 -4 4 37 4 41 0 58 -2 38 -4z m639 1 c-3 -3 -12 -4 -19 -1 -8 3 -5 6 6 6
11 1 17 -2 13 -5z m-1573 -176 c19 -51 45 -120 57 -152 l21 -59 50 129 c27 71
53 139 58 152 9 20 16 22 101 22 82 0 90 -2 85 -17 -15 -39 -105 -283 -126
-343 -13 -36 -32 -85 -43 -110 -18 -42 -20 -44 -28 -22 -7 18 -14 22 -30 17
-14 -5 -19 -4 -15 4 5 7 1 8 -9 4 -26 -9 -58 -10 -82 -1 -13 4 -23 4 -23 -1 0
-9 -30 -8 -47 2 -6 4 -19 30 -28 57 -9 28 -21 50 -26 50 -5 0 -8 3 -7 8 0 4
-6 24 -16 45 -30 68 -97 287 -91 297 3 5 42 10 85 10 l78 0 36 -92z m752 -5
c20 -54 48 -125 62 -158 45 -110 93 -248 87 -253 -3 -3 -12 3 -19 14 -12 17
-25 20 -78 18 -75 -1 -91 6 -108 46 -12 29 -14 30 -79 30 l-67 0 -13 -35 c-7
-19 -15 -36 -19 -36 -9 -2 -38 -6 -79 -12 -18 -2 -33 0 -33 4 0 5 -11 9 -25 9
-14 0 -25 1 -25 3 0 2 21 59 46 128 25 68 59 160 74 204 52 151 36 135 144
135 l94 0 38 -97z m576 68 c105 -51 125 -179 42 -271 -20 -22 -31 -41 -25 -45
14 -8 91 -140 91 -156 0 -8 -7 -5 -20 6 -16 14 -37 18 -89 18 l-69 0 -23 49
c-25 53 -43 68 -82 68 -29 0 -37 -20 -37 -100 0 -39 -3 -51 -10 -40 -9 14 -35
19 -121 22 l-37 1 -1 229 c-1 126 1 233 5 239 4 8 58 10 168 7 143 -3 166 -6
208 -27z m538 -41 l0 -70 -101 0 -100 0 3 -27 c3 -28 3 -28 91 -31 l87 -3 0
-37 c0 -80 -3 -82 -97 -82 l-84 0 3 -27 3 -28 103 -3 103 -3 -3 -59 c-2 -34
-7 -59 -13 -58 -5 2 -9 5 -8 9 2 6 -91 11 -241 13 -88 2 -100 4 -107 21 -4 11
-8 118 -8 238 l-1 217 185 0 185 0 0 -70z m268 -122 l2 -188 90 0 90 0 0 -67
c-1 -55 -3 -65 -13 -52 -14 17 -52 35 -42 19 3 -6 3 -10 -2 -11 -48 -5 -71 -4
-67 3 3 5 10 5 16 2 7 -4 8 -2 4 5 -6 9 -13 8 -31 -3 -17 -12 -26 -13 -31 -4
-4 7 -3 8 4 4 17 -10 15 -1 -2 13 -11 9 -16 9 -22 0 -5 -8 -3 -10 7 -4 8 5 11
4 7 0 -10 -11 -138 -13 -138 -2 0 4 -6 7 -12 6 -7 -1 -18 -1 -24 0 -12 1 -20
442 -9 461 4 7 39 10 88 8 l82 -3 3 -187z m596 165 c7 -16 21 -50 29 -78 8
-27 45 -128 81 -224 37 -96 63 -177 60 -180 -4 -3 -9 0 -11 7 -8 20 -35 44
-42 35 -7 -9 -31 -16 -48 -14 -7 1 -28 3 -47 4 -30 2 -36 7 -47 40 l-12 37
-72 0 -73 0 -6 -34 c-5 -28 -12 -36 -36 -41 -16 -4 -39 -4 -50 0 -12 4 -20 2
-20 -5 0 -7 -6 -8 -17 -2 -10 5 -23 7 -29 5 -26 -9 -20 42 16 139 49 134 120
321 126 330 3 5 45 8 94 8 87 0 90 -1 104 -27z m-1244 -537 c0 -2 -7 -6 -15
-10 -8 -3 -15 -1 -15 4 0 6 7 10 15 10 8 0 15 -2 15 -4z m110 -11 c0 -8 -2
-15 -4 -15 -2 0 -6 7 -10 15 -3 8 -1 15 4 15 6 0 10 -7 10 -15z"/>
<path d="M1497 3485 c-11 -15 -13 -26 -7 -30 6 -4 9 -1 8 7 -2 7 3 12 10 10 8
-1 11 2 8 7 -4 5 -1 11 6 13 7 3 8 7 3 10 -6 3 -18 -5 -28 -17z"/>
<path d="M2678 2223 c7 -3 16 -2 19 1 4 3 -2 6 -13 5 -11 0 -14 -3 -6 -6z"/>
<path d="M2325 2114 c-146 -21 -285 -56 -285 -72 0 -4 33 -28 73 -55 39 -26
94 -63 122 -83 27 -19 77 -55 111 -79 l62 -43 74 32 c63 27 230 125 345 202
l33 22 -38 15 c-106 42 -387 77 -497 61z"/>
<path d="M3030 2056 c0 -2 8 -10 18 -17 15 -13 16 -12 3 4 -13 16 -21 21 -21
13z"/>
<path d="M1443 1473 c9 -2 23 -2 30 0 6 3 -1 5 -18 5 -16 0 -22 -2 -12 -5z"/>
<path d="M3288 1473 c6 -2 18 -2 25 0 6 3 1 5 -13 5 -14 0 -19 -2 -12 -5z"/>
<path d="M1696 1135 c-9 -27 -16 -49 -16 -50 0 0 16 1 35 3 38 5 40 14 10 71
-12 23 -13 23 -29 -24z"/>
<path d="M2219 1223 c-6 -87 -3 -93 40 -93 53 0 86 27 77 64 -7 29 -39 46 -87
46 -20 0 -29 -5 -30 -17z"/>
<path d="M3702 1142 c-16 -53 -16 -52 19 -52 27 0 30 3 23 23 -3 12 -12 32
-18 45 -12 23 -13 23 -24 -16z"/>
<path d="M3825 3805 c-14 -29 -32 -58 -39 -64 -11 -9 -3 -22 45 -68 32 -31 59
-59 59 -63 0 -4 -15 -30 -32 -58 -23 -36 -41 -52 -58 -54 -22 -3 -25 -9 -28
-46 -3 -42 -2 -43 19 -32 12 7 41 10 65 7 35 -4 45 -1 49 13 3 10 15 26 26 36
20 18 21 17 58 -26 l38 -44 14 24 c8 14 21 38 30 55 30 59 89 34 89 -38 0 -34
-6 -46 -39 -77 -22 -21 -36 -42 -31 -46 39 -41 160 -349 160 -407 0 -19 -17
-43 -59 -84 -81 -80 -102 -162 -52 -207 17 -15 19 -13 31 26 39 133 132 217
239 218 35 0 51 -6 73 -27 l28 -27 0 47 c0 62 -24 87 -82 87 l-43 0 -38 116
c-21 64 -60 163 -87 220 -44 95 -48 109 -43 157 5 49 3 56 -26 89 -24 27 -42
38 -74 43 -36 5 -52 17 -114 83 -65 68 -71 78 -58 92 19 21 19 64 0 80 -9 7
-33 16 -55 20 l-39 7 -26 -52z"/>
<path d="M3650 3810 c-24 -8 -23 -8 8 -9 20 -1 31 3 27 9 -3 6 -7 10 -8 9 -1
-1 -13 -5 -27 -9z"/>
<path d="M3481 3807 c2 -1 12 -9 22 -16 15 -12 17 -12 11 3 -3 9 -13 16 -22
16 -8 0 -13 -1 -11 -3z"/>
</g>
</svg>
